<?xml version="1.0" encoding="UTF-8" standalone="no"?>
<svg
   xmlns:dc="http://purl.org/dc/elements/1.1/"
   xmlns:cc="http://creativecommons.org/ns#"
   xmlns:rdf="http://www.w3.org/1999/02/22-rdf-syntax-ns#"
   xmlns:svg="http://www.w3.org/2000/svg"
   xmlns="http://www.w3.org/2000/svg"
   xmlns:sodipodi="http://sodipodi.sourceforge.net/DTD/sodipodi-0.dtd"
   xmlns:inkscape="http://www.inkscape.org/namespaces/inkscape"
   viewBox="0 0 38 57"
   class="css-1ty7gog"
   version="1.1"
   id="svg12"
   sodipodi:docname="figma.svg"
   width="38"
   height="57"
   inkscape:version="1.0.2 (e86c870879, 2021-01-15)">
  <metadata
     id="metadata18">
    <rdf:RDF>
      <cc:Work
         rdf:about="">
        <dc:format>image/svg+xml</dc:format>
        <dc:type
           rdf:resource="http://purl.org/dc/dcmitype/StillImage" />
      </cc:Work>
    </rdf:RDF>
  </metadata>
  <defs
     id="defs16" />
  <sodipodi:namedview
     pagecolor="#ffffff"
     bordercolor="#666666"
     borderopacity="1"
     objecttolerance="10"
     gridtolerance="10"
     guidetolerance="10"
     inkscape:pageopacity="0"
     inkscape:pageshadow="2"
     inkscape:window-width="1366"
     inkscape:window-height="709"
     id="namedview14"
     showgrid="false"
     inkscape:zoom="9.9649123"
     inkscape:cx="19"
     inkscape:cy="28.5"
     inkscape:window-x="0"
     inkscape:window-y="31"
     inkscape:window-maximized="1"
     inkscape:current-layer="svg12" />
  <path
     fill="#1abcfe"
     d="m 19,28.5 a 9.5,9.5 0 1 1 19,0 9.5,9.5 0 0 1 -19,0 z"
     id="path2" />
  <path
     fill="#0acf83"
     d="M 0,47.5 A 9.5,9.5 0 0 1 9.5,38 H 19 v 9.5 a 9.5,9.5 0 1 1 -19,0 z"
     id="path4" />
  <path
     fill="#ff7262"
     d="m 19,0 v 19 h 9.5 a 9.5,9.5 0 1 0 0,-19 z"
     id="path6" />
  <path
     fill="#f24e1e"
     d="M 0,9.5 A 9.5,9.5 0 0 0 9.5,19 H 19 V 0 H 9.5 A 9.5,9.5 0 0 0 0,9.5 Z"
     id="path8" />
  <path
     fill="#a259ff"
     d="M 0,28.5 A 9.5,9.5 0 0 0 9.5,38 H 19 V 19 H 9.5 A 9.5,9.5 0 0 0 0,28.5 Z"
     id="path10" />
</svg>
