<?xml version="1.0" encoding="UTF-8" standalone="no"?>
<svg
   xmlns:dc="http://purl.org/dc/elements/1.1/"
   xmlns:cc="http://creativecommons.org/ns#"
   xmlns:rdf="http://www.w3.org/1999/02/22-rdf-syntax-ns#"
   xmlns:svg="http://www.w3.org/2000/svg"
   xmlns="http://www.w3.org/2000/svg"
   xmlns:sodipodi="http://sodipodi.sourceforge.net/DTD/sodipodi-0.dtd"
   xmlns:inkscape="http://www.inkscape.org/namespaces/inkscape"
   version="1.1"
   id="Capa_1"
   x="0px"
   y="0px"
   viewBox="0 0 497.29599 512"
   xml:space="preserve"
   sodipodi:docname="at.svg"
   width="497.29599"
   height="512"
   inkscape:version="1.0.2 (e86c870879, 2021-01-15)"><metadata
   id="metadata39"><rdf:RDF><cc:Work
       rdf:about=""><dc:format>image/svg+xml</dc:format><dc:type
         rdf:resource="http://purl.org/dc/dcmitype/StillImage" /></cc:Work></rdf:RDF></metadata><defs
   id="defs37" /><sodipodi:namedview
   pagecolor="#ffffff"
   bordercolor="#666666"
   borderopacity="1"
   objecttolerance="10"
   gridtolerance="10"
   guidetolerance="10"
   inkscape:pageopacity="0"
   inkscape:pageshadow="2"
   inkscape:window-width="1366"
   inkscape:window-height="709"
   id="namedview35"
   showgrid="false"
   inkscape:zoom="0.61276998"
   inkscape:cx="174.13478"
   inkscape:cy="420.95476"
   inkscape:window-x="0"
   inkscape:window-y="31"
   inkscape:window-maximized="1"
   inkscape:current-layer="Capa_1" />
<path
   d="M 364.144,485.52 C 320.008,505.384 281.752,512 229.52,512 107.408,512 0,424.456 0,280.28 0,130.208 108.872,0 275.136,0 c 129.472,0 222.16,89.016 222.16,212.6 0,107.4 -60.32,175.08 -139.768,175.08 -34.576,0 -59.584,-17.656 -63.264,-56.648 h -1.472 c -22.8,37.52 -55.904,56.648 -94.896,56.648 -47.816,0 -82.392,-35.312 -82.392,-95.64 0,-89.744 66.208,-171.4 172.136,-171.4 32.368,0 69.144,8.096 87.544,18.392 L 353.12,275.128 c -7.352,43.392 -2.208,63.264 18.392,63.992 31.632,0.736 71.352,-39.728 71.352,-124.32 0,-95.632 -61.792,-169.936 -175.824,-169.936 -112.544,0 -211.128,88.28 -211.128,228.784 0,122.848 78.712,192.736 188.328,192.736 37.52,0 77.248,-8.088 106.664,-23.544 z M 298.672,181.704 c -5.888,-1.472 -13.248,-2.944 -22.808,-2.944 -48.544,0 -86.808,47.816 -86.808,104.456 0,27.952 12.512,45.608 36.784,45.608 27.216,0 55.912,-34.576 62.528,-77.24 z"
   id="path2"
   style="fill:#372b74;fill-opacity:1" />
<g
   id="g4"
   transform="translate(-7.352)">
</g>
<g
   id="g6"
   transform="translate(-7.352)">
</g>
<g
   id="g8"
   transform="translate(-7.352)">
</g>
<g
   id="g10"
   transform="translate(-7.352)">
</g>
<g
   id="g12"
   transform="translate(-7.352)">
</g>
<g
   id="g14"
   transform="translate(-7.352)">
</g>
<g
   id="g16"
   transform="translate(-7.352)">
</g>
<g
   id="g18"
   transform="translate(-7.352)">
</g>
<g
   id="g20"
   transform="translate(-7.352)">
</g>
<g
   id="g22"
   transform="translate(-7.352)">
</g>
<g
   id="g24"
   transform="translate(-7.352)">
</g>
<g
   id="g26"
   transform="translate(-7.352)">
</g>
<g
   id="g28"
   transform="translate(-7.352)">
</g>
<g
   id="g30"
   transform="translate(-7.352)">
</g>
<g
   id="g32"
   transform="translate(-7.352)">
</g>
</svg>
